<?xml version="1.0" encoding="UTF-8"?>
<svg id="Layer_2" data-name="Layer 2" xmlns="http://www.w3.org/2000/svg" viewBox="0 0 222.5 450.84">
  <defs>
    <style>
      .cls-1 {
        fill: #fff;
        stroke-width: 0px;
      }
    </style>
  </defs>
  <g id="Cuttlefish">
    <g id="Whole_fish" data-name="Whole fish">
      <g>
        <path class="cls-1" d="M189.35,202.47c26.35-3.34,41.8-32.88,27.99-56.8l-36.56-63.31-36.55-63.32c-14.66-25.39-51.3-25.39-65.96,0l-36.55,63.32L5.16,145.67c-14.66,25.39,3.66,57.12,32.98,57.12h3.7v28.84c0,5.25,1.58,10.15,4.3,14.24,2.82,4.25,6.85,7.63,11.6,9.63-17.23,12.75-28.4,33.21-28.4,56.29,0,24.46,12.55,45.98,31.55,58.49-4.6,2.07-8.94,4.69-12.7,8.02-8.37,7.52-13.41,18.57-13.74,29.69-.35,10.69,2.96,21.58,9.75,29.79,6.8,7.83,16.64,12.93,26.99,13.06,5.08.07,10.17-1.35,14.41-4.06.94-.78,1.82-1.78,2.22-3.12,1.07-4.58-4.47-8.18-7.25-10.9-2.32-2.09-4.34-4.56-5.86-7.27-2.03-3.28-2.68-7.17-2.13-10.85.02,7.79,4.6,15.49,12.46,18.57,9.72,4.18,21.75-.51,26.64-10.02l.1-.47,1.23-5.62c.2-2.84-.15-5.46-.9-7.84,9.03.48,18.16-.39,26.99-2.61,73.38-19.32,93.97-109.11,47.19-162.86,1.94-3.63,3.04-7.76,3.04-12.14v-29.16ZM75.56,301.06c3.81-14.75,17.13-25.05,32.39-25.05s28.58,10.3,32.39,25.06c.7,2.7,1.06,5.52,1.06,8.38,0,18.44-15.01,33.45-33.45,33.45s-33.45-15-33.45-33.45c0-2.86.36-5.68,1.06-8.39ZM116.14,224.72c-8.14,0-15.99-2.37-22.71-6.84-9.13-6.06-15.57-15.68-17.64-26.42-.5-2.55-.75-5.19-.75-7.85,0-22.67,18.44-41.1,41.1-41.1s41.09,18.44,41.09,41.1c0,2.66-.25,5.3-.75,7.85-2.31,11.96-9.78,22.22-20.5,28.14-6.03,3.34-12.89,5.11-19.84,5.11ZM108.69,416.68l-1.84,5.23s.19-.63.19-.63c-2.8,8.44-12.85,13.13-21.38,10.21-8.59-2.71-13.36-11.42-12.39-19.74,1.06-3.12,3.04-5.9,5.88-7.76l-1.53-1.98c11.95-13.86,34.19-3.78,31.06,14.68ZM137.37,400.36c-8.93,2.74-18.36,4-27.79,3.69-6.94-10.05-22.62-12.68-32.1-2.24l-.15-.2c-1.76,1.52-3.22,3.36-4.31,5.36-6.1,11.21.17,21.69,8.9,29.04,2.58,2.46,6.62,6.25,2.55,9.17-3.39,2.02-8.76,3.35-13.15,2.83-9.02-.81-17.49-6.36-22.25-13.89-8.83-14.54-5.7-35.14,7.84-45.59,6.63-4.81,14.65-7.65,23.05-9.49,6.14,1.76,12.62,2.72,19.33,2.72,27.64,0,51.54-16.03,62.9-39.3.12-.25.24-.5.36-.76,2.72-6.92,4.82-14.16,6.22-21.64.32-2.71.49-5.47.49-8.27,0-21.9-10.06-41.45-25.81-54.27h20c.17,0,.35,0,.52-.01,3.75-.07,7.32-.96,10.52-2.49,9.17,9.67,16.14,21.57,20.15,34.51,14.81,45.35-10.94,97.1-57.28,110.83Z"/>
        <circle class="cls-1" cx="103.32" cy="301.38" r="25.38"/>
        <circle class="cls-1" cx="120.28" cy="174.23" r="31.56"/>
        <path class="cls-1" d="M103.19,411.81c0,.15-1.17,4.13-1.17,4.15-2.65,5.85-8.97,9.46-15.63,8.39-7.96-1.28-13.37-8.78-12.09-16.74.53-3.29,2.13-6.15,4.39-8.28.3-.29.63-.57.96-.82,3.09-2.47,7.18-3.67,11.39-2.99,3.62.58,6.71,2.45,8.89,5.07.64.77,1.21,1.61,1.69,2.5,1.37,2.58,1.99,5.6,1.58,8.72Z"/>
      </g>
    </g>
  </g>
</svg>